<?xml version="1.0" encoding="UTF-8"?>
<!DOCTYPE svg  PUBLIC '-//W3C//DTD SVG 1.1//EN'  'http://www.w3.org/Graphics/SVG/1.1/DTD/svg11.dtd'>
<svg width="256px" height="256px" fill="#000000" stroke="#000000" stroke-width=".0039867" version="1.1" viewBox="-39.87 -39.87 478.41 478.41" xml:space="preserve" xmlns="http://www.w3.org/2000/svg">





   <path d="m98.107 275.5c-13.789 0-25.006 11.264-25.006 25.107 0 13.777 11.217 24.986 25.006 24.986 13.834 0 25.09-11.209 25.09-24.986 0-13.843-11.256-25.107-25.09-25.107z" fill="none"/> <path d="m360.06 24h-321.44c-8.058 0-14.613 6.557-14.613 14.613v321.44c0 8.057 6.555 14.611 14.613 14.611h321.44c8.057 0 14.611-6.555 14.611-14.611v-321.44c1e-3 -8.056-6.554-14.613-14.61-14.613zm-261.95 325.59c-27.021 0-49.006-21.975-49.006-48.986 0-27.078 21.984-49.107 49.006-49.107 27.068 0 49.09 22.029 49.09 49.107 0 27.011-22.021 48.986-49.09 48.986zm144.61-2.076s-8e-3 2e-3 -0.016 0h-48.729c-6.541 0-11.877-5.238-11.998-11.777-0.584-31.625-13.164-61.316-35.424-83.604-22.275-22.338-51.846-34.953-83.27-35.527-6.541-0.119-11.781-5.457-11.781-11.998v-48.582c0-3.211 1.287-6.287 3.572-8.543 2.248-2.217 5.275-3.457 8.428-3.457h0.162c50.654 0.686 98.338 20.883 134.27 56.873 35.758 35.814 55.896 83.281 56.756 133.73 0.021 0.291 0.031 0.586 0.031 0.883 2e-3 6.627-5.369 12-12.002 12zm94.867 0s-8e-3 2e-3 -0.016 0h-48.648c-6.578 0-11.93-5.295-12-11.871-1.254-116.74-97.008-212.74-213.45-214-6.576-0.072-11.871-5.424-11.871-12v-48.565c0-3.201 1.279-6.269 3.553-8.521 2.273-2.254 5.367-3.512 8.555-3.477 75.951 0.68 147.44 30.768 201.3 84.723 53.689 53.779 83.699 125.1 84.553 200.89 0.02 0.272 0.029 0.547 0.029 0.822-1e-3 6.627-5.374 12-12.007 12z" fill="none"/> <path d="m98.107 251.5c-27.021 0-49.006 22.029-49.006 49.107 0 27.012 21.984 48.986 49.006 48.986 27.068 0 49.09-21.975 49.09-48.986 0-27.078-22.021-49.107-49.09-49.107zm0 74.094c-13.789 0-25.006-11.209-25.006-24.986 0-13.844 11.217-25.107 25.006-25.107 13.834 0 25.09 11.264 25.09 25.107 0 13.777-11.256 24.986-25.09 24.986z" fill="#3D6889"/> <path d="m75.498 168.63v24.668c33.244 3.301 64.15 17.926 88.037 41.881 23.879 23.906 38.459 54.922 41.746 88.334h24.816c-7.031-81.623-73.111-147.83-154.6-154.88z" fill="#73D0F4"/> <path d="m197.93 200.9c-35.934-35.99-83.617-56.188-134.27-56.873h-0.162c-3.152 0-6.18 1.24-8.428 3.457-2.285 2.256-3.572 5.332-3.572 8.543v48.582c0 6.541 5.24 11.879 11.781 11.998 31.424 0.574 60.994 13.189 83.27 35.527 22.26 22.287 34.84 51.979 35.424 83.604 0.121 6.539 5.457 11.777 11.998 11.777h48.729c8e-3 2e-3 0.016 0 0.016 0 6.633 0 12.004-5.373 12.004-12 0-0.297-0.01-0.592-0.031-0.883-0.862-50.45-21.001-97.917-56.758-133.73zm7.349 122.62c-3.287-33.412-17.867-64.428-41.746-88.334-23.887-23.955-54.793-38.58-88.037-41.881v-24.668c81.488 7.057 147.57 73.26 154.6 154.88h-24.817z" fill="#3D6889"/> <path d="m75.596 73.465v24.598c58.516 3.502 113.19 28.121 155.03 70.064 41.838 41.943 66.391 96.742 69.877 155.39h24.682c-7.332-133.93-115.89-242.68-249.59-250.05z" fill="#73D0F4"/> <path d="m265.01 133.8c-53.861-53.955-125.35-84.043-201.3-84.723-3.188-0.035-6.281 1.223-8.555 3.477-2.273 2.252-3.553 5.32-3.553 8.521v48.565c0 6.576 5.295 11.928 11.871 12 116.44 1.262 212.2 97.264 213.45 214 0.07 6.576 5.422 11.871 12 11.871h48.648c8e-3 2e-3 0.016 0 0.016 0 6.633 0 12.006-5.373 12.006-12 0-0.275-0.01-0.551-0.029-0.822-0.853-75.796-30.863-147.11-84.552-200.89zm35.496 189.71c-3.486-58.646-28.039-113.44-69.877-155.39-41.842-41.943-96.514-66.563-155.03-70.064v-24.598c133.7 7.369 242.26 116.12 249.59 250.05h-24.682z" fill="#3D6889"/> <path d="M360.057,0H38.613C17.322,0,0,17.322,0,38.613v321.443c0,21.291,17.322,38.611,38.613,38.611 h321.443c21.291,0,38.611-17.32,38.611-38.611V38.613C398.668,17.322,381.348,0,360.057,0z M374.668,360.057 c0,8.057-6.555,14.611-14.611,14.611H38.613c-8.059,0-14.613-6.555-14.613-14.611V38.613C24,30.557,30.555,24,38.613,24h321.443 c8.057,0,14.611,6.557,14.611,14.613V360.057z" fill="#3D6889"/>   

</svg>
