<?xml version="1.0" encoding="UTF-8" standalone="no"?>
<!-- Created with Inkscape (http://www.inkscape.org/) -->

<svg
   width="287.95053mm"
   height="56.443878mm"
   viewBox="0 0 287.95115 56.444"
   version="1.1"
   id="svg1"
   xml:space="preserve"
   inkscape:version="1.3.2 (091e20e, 2023-11-25)"
   sodipodi:docname="logo-with-name.svg"
   xmlns:inkscape="http://www.inkscape.org/namespaces/inkscape"
   xmlns:sodipodi="http://sodipodi.sourceforge.net/DTD/sodipodi-0.dtd"
   xmlns="http://www.w3.org/2000/svg"
   xmlns:svg="http://www.w3.org/2000/svg"><sodipodi:namedview
     id="namedview1"
     pagecolor="#ffffff"
     bordercolor="#000000"
     borderopacity="0.25"
     inkscape:showpageshadow="2"
     inkscape:pageopacity="0.0"
     inkscape:pagecheckerboard="true"
     inkscape:deskcolor="#d1d1d1"
     inkscape:document-units="mm"
     inkscape:zoom="0.8668254"
     inkscape:cx="258.41421"
     inkscape:cy="267.64329"
     inkscape:window-width="2560"
     inkscape:window-height="1355"
     inkscape:window-x="0"
     inkscape:window-y="25"
     inkscape:window-maximized="1"
     inkscape:current-layer="layer1" /><defs
     id="defs1" /><g
     inkscape:label="Layer 1"
     inkscape:groupmode="layer"
     id="layer1"
     transform="translate(-5.0484096,-76.778062)"><g
       style="fill:#000000;stroke:#000000;stroke-width:0.00398668"
       id="g1"
       transform="matrix(0.1415801,0,0,0.1415801,5.0486918,76.778344)"><g
         id="SVGRepo_bgCarrier"
         stroke-width="0" /><g
         id="SVGRepo_tracerCarrier"
         stroke-linecap="round"
         stroke-linejoin="round"
         stroke="#cccccc"
         stroke-width="0.797336" /><g
         id="SVGRepo_iconCarrier"> <g
   id="g9"> <g
   id="g8"> <path
   style="fill:none"
   d="m 98.107,275.498 c -13.789,0 -25.006,11.264 -25.006,25.107 0,13.777 11.217,24.986 25.006,24.986 13.834,0 25.09,-11.209 25.09,-24.986 0,-13.843 -11.256,-25.107 -25.09,-25.107 z"
   id="path1" /> <path
   style="fill:none"
   d="M 360.057,24 H 38.613 C 30.555,24 24,30.557 24,38.613 v 321.443 c 0,8.057 6.555,14.611 14.613,14.611 h 321.443 c 8.057,0 14.611,-6.555 14.611,-14.611 V 38.613 C 374.668,30.557 368.113,24 360.057,24 Z M 98.107,349.592 c -27.021,0 -49.006,-21.975 -49.006,-48.986 0,-27.078 21.984,-49.107 49.006,-49.107 27.068,0 49.09,22.029 49.09,49.107 0,27.011 -22.021,48.986 -49.09,48.986 z m 144.608,-2.076 c 0,0 -0.008,0.002 -0.016,0 H 193.97 c -6.541,0 -11.877,-5.238 -11.998,-11.777 -0.584,-31.625 -13.164,-61.316 -35.424,-83.604 -22.275,-22.338 -51.846,-34.953 -83.27,-35.527 -6.541,-0.119 -11.781,-5.457 -11.781,-11.998 v -48.582 c 0,-3.211 1.287,-6.287 3.572,-8.543 2.248,-2.217 5.275,-3.457 8.428,-3.457 0.055,0 0.107,0 0.162,0 50.654,0.686 98.338,20.883 134.271,56.873 35.758,35.814 55.896,83.281 56.756,133.732 0.021,0.291 0.031,0.586 0.031,0.883 0.002,6.627 -5.369,12 -12.002,12 z m 94.867,0 c 0,0 -0.008,0.002 -0.016,0 h -48.648 c -6.578,0 -11.93,-5.295 -12,-11.871 -1.254,-116.738 -97.008,-212.74 -213.451,-214.002 -6.576,-0.072 -11.871,-5.424 -11.871,-12 V 61.078 c 0,-3.201 1.279,-6.269 3.553,-8.521 2.273,-2.254 5.367,-3.512 8.555,-3.477 75.951,0.68 147.441,30.768 201.303,84.723 53.689,53.779 83.699,125.096 84.553,200.891 0.02,0.272 0.029,0.547 0.029,0.822 -10e-4,6.627 -5.374,12 -12.007,12 z"
   id="path2" /> <path
   style="fill:#3d6889"
   d="m 98.107,251.498 c -27.021,0 -49.006,22.029 -49.006,49.107 0,27.012 21.984,48.986 49.006,48.986 27.068,0 49.09,-21.975 49.09,-48.986 0,-27.078 -22.021,-49.107 -49.09,-49.107 z m 0,74.094 c -13.789,0 -25.006,-11.209 -25.006,-24.986 0,-13.844 11.217,-25.107 25.006,-25.107 13.834,0 25.09,11.264 25.09,25.107 0,13.777 -11.256,24.986 -25.09,24.986 z"
   id="path3" /> <path
   style="fill:#73d0f4"
   d="m 75.498,168.633 v 24.668 c 33.244,3.301 64.15,17.926 88.037,41.881 23.879,23.906 38.459,54.922 41.746,88.334 h 24.816 C 223.066,241.893 156.986,175.689 75.498,168.633 Z"
   id="path4" /> <path
   style="fill:#3d6889"
   d="m 197.932,200.9 c -35.934,-35.99 -83.617,-56.188 -134.271,-56.873 -0.055,0 -0.107,0 -0.162,0 -3.152,0 -6.18,1.24 -8.428,3.457 -2.285,2.256 -3.572,5.332 -3.572,8.543 v 48.582 c 0,6.541 5.24,11.879 11.781,11.998 31.424,0.574 60.994,13.189 83.27,35.527 22.26,22.287 34.84,51.979 35.424,83.604 0.121,6.539 5.457,11.777 11.998,11.777 h 48.729 c 0.008,0.002 0.016,0 0.016,0 6.633,0 12.004,-5.373 12.004,-12 0,-0.297 -0.01,-0.592 -0.031,-0.883 -0.862,-50.45 -21.001,-97.917 -56.758,-133.732 z m 7.349,122.616 c -3.287,-33.412 -17.867,-64.428 -41.746,-88.334 -23.887,-23.955 -54.793,-38.58 -88.037,-41.881 v -24.668 c 81.488,7.057 147.568,73.26 154.6,154.883 z"
   id="path5" /> <path
   style="fill:#73d0f4"
   d="m 75.596,73.465 v 24.598 c 58.516,3.502 113.188,28.121 155.029,70.064 41.838,41.943 66.391,96.742 69.877,155.389 h 24.682 C 317.852,189.59 209.293,80.834 75.596,73.465 Z"
   id="path6" /> <path
   style="fill:#3d6889"
   d="M 265.006,133.803 C 211.145,79.848 139.654,49.76 63.703,49.08 c -3.188,-0.035 -6.281,1.223 -8.555,3.477 -2.273,2.252 -3.553,5.32 -3.553,8.521 v 48.565 c 0,6.576 5.295,11.928 11.871,12 116.443,1.262 212.197,97.264 213.451,214.002 0.07,6.576 5.422,11.871 12,11.871 h 48.648 c 0.008,0.002 0.016,0 0.016,0 6.633,0 12.006,-5.373 12.006,-12 0,-0.275 -0.01,-0.551 -0.029,-0.822 -0.853,-75.796 -30.863,-147.112 -84.552,-200.891 z m 35.496,189.713 C 297.016,264.87 272.463,210.071 230.625,168.127 188.783,126.184 134.111,101.564 75.596,98.063 V 73.465 c 133.697,7.369 242.256,116.125 249.588,250.051 z"
   id="path7" /> <path
   style="fill:#3d6889"
   d="M 360.057,0 H 38.613 C 17.322,0 0,17.322 0,38.613 v 321.443 c 0,21.291 17.322,38.611 38.613,38.611 h 321.443 c 21.291,0 38.611,-17.32 38.611,-38.611 V 38.613 C 398.668,17.322 381.348,0 360.057,0 Z m 14.611,360.057 c 0,8.057 -6.555,14.611 -14.611,14.611 H 38.613 C 30.554,374.668 24,368.113 24,360.057 V 38.613 C 24,30.557 30.555,24 38.613,24 h 321.443 c 8.057,0 14.611,6.557 14.611,14.613 v 321.444 z"
   id="path8" /> </g> </g> </g></g><path
       style="fill:#3d6889;fill-opacity:1;stroke-width:1.15363"
       d=""
       id="path9"
       transform="scale(0.26458333)" /><path
       style="fill:#3d6889;fill-opacity:1;stroke-width:1.15363"
       d=""
       id="path17"
       transform="scale(0.26458333)" /><path
       d="m 85.394268,100.68711 v 0 c 2.907921,0 4.725369,-1.557824 5.608132,-3.582974 0.623125,-1.50588 0.623125,-3.32333 0,-4.88115 -0.882763,-2.02514 -2.700211,-3.53106 -5.608132,-3.53106 h -9.139173 c -0.519273,0 -0.882763,0.36351 -0.882763,0.77893 0,0.51926 0.36349,0.88274 0.882763,0.88274 h 9.139173 c 2.129013,0 3.479119,1.1424 4.050318,2.54444 0.467343,1.1424 0.467343,2.4925 0,3.58296 -0.571199,1.50592 -2.025161,2.59638 -4.050318,2.59638 h -2.959846 c -0.467343,0 -0.830833,0.36348 -0.830833,0.7789 0,0.467354 0.36349,0.830834 0.830833,0.830834 z M 66.700501,131.0645 v 0 -51.096324 h 19.57653 c 6.802453,0 11.164331,3.79069 13.137562,8.72375 1.453957,3.79069 1.453957,8.20449 0,11.995184 -1.973231,4.93309 -6.335109,8.72375 -13.137562,8.72375 H 76.255095 c -0.519273,0 -0.882763,0.36351 -0.882763,0.77893 v 20.87471 c 0,0.41542 0.36349,0.77889 0.882763,0.77889 0.415416,0 0.778907,-0.36347 0.778907,-0.77889 v -19.94003 h 9.243029 c 7.633286,0 12.566363,-4.3619 14.747299,-9.71037 1.60974,-4.309964 1.60974,-9.191114 0,-13.397224 -2.180936,-5.45235 -7.114013,-9.71037 -14.747299,-9.71037 h -20.45929 c -0.41542,0 -0.778907,0.41542 -0.778907,0.83084 V 131.0645 c 0,0.41542 0.363487,0.77889 0.778907,0.77889 0.467343,0 0.88276,-0.36347 0.88276,-0.77889 z M 130.8305,100.68711 v 0 c 3.42719,0 6.17933,-2.544444 6.17933,-5.971624 0,-3.47912 -2.75214,-6.02356 -6.17933,-6.02356 h -9.13917 c -1.09047,0 -1.09047,1.66167 0,1.66167 h 9.13917 c 2.4925,0 4.51766,1.81745 4.51766,4.36189 0,2.4925 -2.02516,4.36189 -4.51766,4.36189 h -2.90792 c -0.51927,0 -0.88276,0.36348 -0.88276,0.7789 0,0.467354 0.36349,0.830834 0.88276,0.830834 z m 5.03693,29.85809 v 0 l -13.55298,-18.0187 c -0.25963,-0.36347 -0.7789,-0.41541 -1.14239,-0.20776 -0.20772,0.20776 -0.36349,0.51926 -0.31157,0.72699 v 18.0187 c 0,0.41542 0.36349,0.88278 0.83083,0.88278 0.41542,0 0.83084,-0.46736 0.83084,-0.88278 v -15.57814 l 11.94323,15.99356 c 0.31157,0.46736 0.88277,0.51926 1.24626,0.25953 0.36348,-0.31164 0.41541,-0.83084 0.15578,-1.19431 z m -23.73069,0.5193 v 0 -51.096324 h 19.57652 c 8.15256,0 14.5396,6.69861 14.5396,14.74731 0,7.996804 -6.38704,14.695374 -14.5396,14.695374 -0.46734,0 -0.83083,0.36351 -0.83083,0.88277 0,0.20776 0.10384,0.41542 0.25963,0.57121 l 15.99356,20.61508 c 0.36349,0.46732 0.83083,0.51926 1.19432,0.15565 0.36349,-0.20776 0.46735,-0.72699 0.15579,-1.0905 l -15.05887,-19.47268 c 8.30834,-0.88274 14.5396,-8.0487 14.5396,-16.357044 0,-9.03532 -7.16595,-16.51282 -16.2532,-16.51282 h -20.45928 c -0.41542,0 -0.77891,0.46736 -0.77891,0.88278 v 51.979054 c 0,0.41542 0.36349,0.88274 0.77891,0.88274 0.51927,0 0.88276,-0.46732 0.88276,-0.88274 z m 66.36287,-21.65364 v 0 h -11.63168 c -0.46734,0 -0.83083,0.36351 -0.83083,0.88277 v 10.38542 c 0,0.41542 0.36349,0.77893 0.83083,0.77893 h 16.51283 c 0.46734,0 0.83083,-0.36351 0.83083,-0.77893 0,-0.51926 -0.36349,-0.88274 -0.83083,-0.88274 h -15.68199 v -8.72378 h 10.80084 c 0.51927,0 0.88276,-0.36348 0.88276,-0.7789 0,-0.51926 -0.36349,-0.88277 -0.88276,-0.88277 z m 4.88115,-20.718934 v 0 h -16.51283 c -0.46734,0 -0.83083,0.36351 -0.83083,0.77893 v 10.38542 c 0,0.467354 0.36349,0.882774 0.83083,0.882774 h 11.63168 c 0.51927,0 0.88276,-0.41542 0.88276,-0.882774 0,-0.41542 -0.36349,-0.83084 -0.88276,-0.83084 h -10.80084 v -8.67184 h 15.68199 c 0.46734,0 0.83083,-0.36348 0.83083,-0.88274 0,-0.41542 -0.36349,-0.77893 -0.83083,-0.77893 z m 0,41.489804 v 0 H 157.31334 V 79.968176 h 26.06742 c 0.46734,0 0.83083,-0.36348 0.83083,-0.88274 0,-0.41541 -0.36349,-0.77893 -0.83083,-0.77893 H 156.4825 c -0.51926,0 -0.88276,0.36352 -0.88276,0.77893 V 131.0645 c 0,0.41542 0.3635,0.77889 0.88276,0.77889 h 26.89826 c 0.46734,0 0.83083,-0.36347 0.83083,-0.77889 0,-0.5193 -0.36349,-0.88277 -0.83083,-0.88277 z m 45.74781,-50.317394 v 0 c -3.37527,-1.3501 -6.90631,-2.07709 -10.54121,-2.07709 -12.92986,0 -21.2382,6.95824 -24.8731,15.99356 -2.856,6.906304 -2.856,15.058854 0,22.017094 3.6349,8.93147 11.94324,15.94165 24.8731,15.94165 3.6349,0 7.16594,-0.67505 10.54121,-2.07708 0.41541,-0.20776 0.62312,-0.62315 0.41541,-1.14241 -0.15579,-0.36351 -0.72698,-0.5712 -1.09047,-0.41542 -3.11563,1.3501 -6.43897,1.9213 -9.86615,1.9213 -12.20288,0 -19.99195,-6.43897 -23.41914,-14.90309 -2.59636,-6.54282 -2.59636,-14.17611 0,-20.770844 3.42719,-8.30836 11.21626,-14.90309 23.41914,-14.90309 3.42718,0 6.75052,0.67505 9.86615,1.97324 0.36349,0.15565 0.93469,0 1.09047,-0.46736 0.15578,-0.41542 0,-0.93468 -0.41541,-1.09046 z m -2.02516,37.595224 v 0 c -2.856,1.60976 -5.24464,2.18097 -8.51605,2.18097 -7.01017,0 -11.37205,-3.79069 -13.29335,-8.72379 -1.55782,-3.84259 -1.55782,-8.41218 0,-12.254774 1.9213,-4.88116 6.28318,-8.72379 13.29335,-8.72379 3.27141,0 5.66005,0.5712 8.51605,2.07708 0.41541,0.20776 0.83083,0.10388 1.09047,-0.25952 0.20769,-0.46733 0.0519,-0.98662 -0.31157,-1.19431 -3.11563,-1.71361 -5.76391,-2.33672 -9.29496,-2.33672 -7.73715,0 -12.72214,4.30995 -14.85116,9.81422 -1.66167,4.258044 -1.66167,9.191104 0,13.449124 2.12902,5.5562 7.11401,9.7623 14.85116,9.7623 3.53105,0 6.17933,-0.5712 9.29496,-2.33671 0.36349,-0.20776 0.51927,-0.72699 0.31157,-1.09046 -0.25963,-0.41542 -0.67506,-0.57121 -1.09047,-0.36352 z m 22.95178,13.60494 v 0 -51.979064 c 0,-0.41541 -0.36349,-0.77893 -0.7789,-0.77893 -0.51927,0 -0.88276,0.36352 -0.88276,0.77893 V 131.0645 c 0,0.41542 0.36349,0.77889 0.88276,0.77889 0.41541,0 0.7789,-0.36347 0.7789,-0.77889 z m -10.38542,0 v 0 -51.979064 c 0,-0.41541 -0.36349,-0.77893 -0.83083,-0.77893 -0.46734,0 -0.83084,0.36352 -0.83084,0.77893 V 131.0645 c 0,0.41542 0.3635,0.77889 0.83084,0.77889 0.46734,0 0.83083,-0.36347 0.83083,-0.77889 z m 20.14773,-2.70022 v 0 c 2.90792,1.45397 5.66005,2.38865 8.25641,3.01176 13.24144,3.11564 24.92504,-2.54441 24.92504,-15.7339 0,-13.13758 -15.88971,-15.837804 -19.1611,-18.330304 -1.03856,-0.7789 -1.60976,-1.9213 -1.60976,-3.01177 -0.0518,-2.4925 1.86935,-3.79069 4.05032,-4.10222 3.42718,-0.36351 7.89291,1.03852 10.43735,2.02514 0.98662,0.46736 1.66167,-1.09046 0.62311,-1.50588 -4.20607,-1.76551 -7.4775,-2.38866 -10.95662,-2.18093 -3.37527,0.15565 -5.97162,2.59635 -5.81583,5.97162 0.41542,6.594734 9.45074,5.24463 16.56476,11.891304 6.17931,5.71199 5.08885,14.79925 0.15565,19.78425 -6.49092,6.49088 -18.27837,5.08884 -26.63864,0.72695 -0.98661,-0.51926 -1.81745,0.93471 -0.83083,1.45398 z m 28.81956,-48.136474 v 0 c -3.37527,-1.14237 -6.02356,-1.71357 -8.0487,-2.02514 -11.68362,-1.60976 -20.51122,5.19272 -20.51122,16.46088 0,13.501064 15.94164,15.370454 19.36881,18.226434 1.66167,1.50591 1.9213,4.15417 0.20776,5.76393 -3.6349,3.32333 -13.03371,0.6231 -17.6033,-2.54444 -0.88276,-0.62311 -1.86938,0.72698 -0.93469,1.35009 4.62151,3.42722 10.5412,4.56962 15.11081,4.30995 3.42718,-0.20776 6.49089,-2.64828 6.23126,-6.02352 -0.41546,-6.69861 -9.29499,-5.45236 -16.409,-11.6317 -6.23126,-5.608114 -5.08886,-14.851164 -0.41542,-19.888064 5.71198,-6.23129 14.64345,-5.14079 22.43252,-2.4406 1.03856,0.41542 1.60973,-1.19431 0.57121,-1.55782 z"
       id="path1-8"
       style="fill:#3d6889;fill-opacity:1;stroke-width:5.19273" /></g></svg>
